<svg width="459" height="572" viewBox="0 0 459 572" fill="none" xmlns="http://www.w3.org/2000/svg">
<rect x="0.79541" width="457.409" height="571.681" rx="25" fill="#4285F4"/>
<rect width="128.392" height="111.627" transform="translate(165.304 230.027)" fill="#4285F4"/>
<path d="M229.888 341.644C211.08 341.644 192.273 341.644 173.465 341.644C172.546 341.644 171.615 341.644 170.692 341.55C165.984 341.117 164.091 337.987 166.099 333.755C167.841 330.102 169.742 326.542 171.587 322.927C180.3 305.909 189.012 288.893 197.724 271.88C197.994 271.361 198.275 270.841 198.588 270.345C200.782 266.875 204.346 266.386 207.153 269.379C209.133 271.474 210.809 273.826 212.575 276.096C221.551 287.67 230.527 299.249 239.504 310.834C243.424 315.874 248.362 316.148 252.968 311.615C255.253 309.365 257.487 307.055 259.799 304.824C263.969 300.799 268.702 301.042 272.107 305.735C278.942 315.152 285.607 324.694 292.304 334.204C292.827 334.951 293.228 335.773 293.492 336.643C294.141 338.827 293.223 340.585 290.977 341.168C289.569 341.5 288.124 341.654 286.677 341.625C267.758 341.656 248.828 341.662 229.888 341.644Z" fill="#D4D2E3"/>
<path d="M272.068 248.392C272.063 252.025 270.965 255.574 268.913 258.59C266.862 261.606 263.949 263.953 260.544 265.334C257.138 266.714 253.395 267.066 249.787 266.345C246.178 265.623 242.869 263.861 240.277 261.281C237.685 258.701 235.928 255.42 235.229 251.854C234.529 248.288 234.919 244.597 236.347 241.249C237.776 237.902 240.18 235.048 243.255 233.05C246.33 231.052 249.936 230 253.617 230.027C258.519 230.089 263.201 232.048 266.652 235.484C270.103 238.919 272.048 243.555 272.068 248.392Z" fill="#D4D2E3"/>
</svg>
