<svg width="458" height="572" viewBox="0 0 458 572" fill="none" xmlns="http://www.w3.org/2000/svg">
<rect width="457.409" height="571.681" rx="25" fill="#EA4334"/>
<rect width="128.392" height="111.627" transform="translate(164.509 230.027)" fill="#EA4334"/>
<path d="M229.093 341.644C210.285 341.644 191.477 341.644 172.669 341.644C171.75 341.644 170.82 341.644 169.897 341.55C165.188 341.117 163.296 337.987 165.303 333.755C167.046 330.102 168.947 326.542 170.792 322.927C179.504 305.909 188.217 288.893 196.929 271.88C197.198 271.361 197.479 270.841 197.792 270.345C199.986 266.875 203.55 266.386 206.358 269.379C208.338 271.474 210.013 273.826 211.779 276.096C220.756 287.67 229.732 299.249 238.708 310.834C242.629 315.874 247.567 316.148 252.173 311.615C254.458 309.365 256.691 307.055 259.004 304.824C263.174 300.799 267.906 301.042 271.312 305.735C278.147 315.152 284.812 324.694 291.509 334.204C292.032 334.951 292.433 335.773 292.697 336.643C293.346 338.827 292.427 340.585 290.182 341.168C288.774 341.5 287.329 341.654 285.881 341.625C266.962 341.656 248.033 341.662 229.093 341.644Z" fill="#D4D2E3"/>
<path d="M271.272 248.392C271.267 252.025 270.17 255.574 268.118 258.59C266.066 261.606 263.153 263.953 259.748 265.334C256.343 266.714 252.599 267.066 248.991 266.345C245.383 265.623 242.073 263.861 239.482 261.281C236.89 258.701 235.133 255.42 234.433 251.854C233.734 248.288 234.123 244.597 235.552 241.249C236.981 237.902 239.385 235.048 242.46 233.05C245.534 231.052 249.141 230 252.822 230.027C257.724 230.089 262.405 232.048 265.857 235.484C269.308 238.919 271.253 243.555 271.272 248.392Z" fill="#D4D2E3"/>
</svg>
