<svg xmlns="http://www.w3.org/2000/svg" xmlns:xlink="http://www.w3.org/1999/xlink" width="500" zoomAndPan="magnify" viewBox="0 0 375 374.999991" height="500" preserveAspectRatio="xMidYMid meet" version="1.0"><defs><clipPath id="b1a8b62134"><path d="M 26.25 84 L 348.75 84 L 348.75 264 L 26.25 264 Z M 26.25 84 " clip-rule="nonzero"/></clipPath><clipPath id="885eefb5c1"><path d="M 26.25 180 L 348.75 180 L 348.75 264 L 26.25 264 Z M 26.25 180 " clip-rule="nonzero"/></clipPath></defs><g clip-path="url(#b1a8b62134)"><path fill="#d8e9ef" d="M 303.035156 162.726562 C 298.539062 162.726562 294.199219 163.082031 290.097656 163.746094 C 290.242188 162.714844 290.316406 161.671875 290.316406 160.613281 C 290.316406 143.472656 270.863281 129.582031 246.871094 129.582031 C 243.300781 129.582031 239.832031 129.890625 236.511719 130.46875 C 227.140625 104.128906 196.425781 84.8125 159.972656 84.8125 C 116.996094 84.8125 81.988281 111.664062 80.546875 145.21875 C 49.285156 152.574219 26.449219 175.816406 26.449219 203.359375 C 26.449219 236.8125 60.132812 263.929688 101.6875 263.929688 C 122.191406 263.929688 140.773438 257.324219 154.347656 246.617188 C 168.53125 257.21875 189.53125 263.929688 212.957031 263.929688 C 255.683594 263.929688 290.316406 241.613281 290.316406 214.085938 C 290.316406 213.246094 290.285156 212.414062 290.21875 211.589844 C 294.285156 212.238281 298.582031 212.589844 303.035156 212.589844 C 328.199219 212.589844 348.601562 201.425781 348.601562 187.65625 C 348.601562 173.890625 328.199219 162.726562 303.035156 162.726562 " fill-opacity="1" fill-rule="nonzero"/></g><g clip-path="url(#885eefb5c1)"><path fill="#d2dcde" d="M 308.035156 191.925781 C 303.582031 191.925781 299.285156 191.574219 295.21875 190.925781 C 295.28125 191.75 295.316406 192.582031 295.316406 193.417969 C 295.316406 220.949219 260.683594 243.265625 217.957031 243.265625 C 194.527344 243.265625 173.53125 236.554688 159.347656 225.953125 C 145.777344 236.660156 127.191406 243.265625 106.6875 243.265625 C 65.132812 243.265625 31.445312 216.148438 31.445312 182.695312 C 31.445312 182.3125 31.46875 181.933594 31.476562 181.554688 C 28.230469 188.320312 26.449219 195.671875 26.449219 203.359375 C 26.449219 236.8125 60.132812 263.929688 101.6875 263.929688 C 122.191406 263.929688 140.773438 257.324219 154.347656 246.617188 C 168.53125 257.21875 189.53125 263.929688 212.957031 263.929688 C 255.683594 263.929688 290.316406 241.613281 290.316406 214.085938 C 290.316406 213.246094 290.285156 212.414062 290.21875 211.589844 C 294.285156 212.238281 298.582031 212.589844 303.035156 212.589844 C 328.203125 212.589844 348.601562 201.425781 348.601562 187.65625 C 348.601562 185.09375 347.890625 182.617188 346.574219 180.285156 C 338.503906 187.277344 324.265625 191.925781 308.035156 191.925781 " fill-opacity="1" fill-rule="nonzero"/></g><path fill="#cfb19d" d="M 173.132812 0.59375 L 173.132812 10.273438 L 175.453125 10.273438 L 175.453125 0.59375 C 174.125 0.0273438 173.132812 0.59375 173.132812 0.59375 " fill-opacity="1" fill-rule="nonzero"/><path fill="#d5bbab" d="M 173.671875 0.410156 L 173.671875 10.273438 L 174.914062 10.273438 L 174.914062 0.421875 C 174.410156 0.304688 173.984375 0.335938 173.671875 0.410156 " fill-opacity="1" fill-rule="nonzero"/><path fill="#430c16" d="M 173.132812 0.59375 L 173.132812 0.957031 C 173.132812 0.957031 174.125 0.386719 175.449219 0.957031 L 175.453125 0.59375 C 174.125 0.0273438 173.132812 0.59375 173.132812 0.59375 " fill-opacity="1" fill-rule="nonzero"/><path fill="#cfb19d" d="M 172.671875 9.960938 L 172.671875 23.496094 L 175.914062 23.496094 L 175.914062 9.960938 C 174.058594 9.167969 172.671875 9.960938 172.671875 9.960938 " fill-opacity="1" fill-rule="nonzero"/><path fill="#d5bbab" d="M 173.425781 9.699219 L 173.425781 23.496094 L 175.164062 23.496094 L 175.164062 9.71875 C 174.460938 9.554688 173.859375 9.605469 173.425781 9.699219 " fill-opacity="1" fill-rule="nonzero"/><path fill="#430c16" d="M 172.671875 9.960938 L 172.671875 10.347656 C 172.675781 10.347656 174.0625 9.550781 175.914062 10.347656 L 175.914062 9.960938 C 174.058594 9.167969 172.671875 9.960938 172.671875 9.960938 " fill-opacity="1" fill-rule="nonzero"/><path fill="#cfb19d" d="M 171.238281 22.023438 L 171.238281 47.5625 L 177.347656 47.5625 L 177.347656 22.023438 C 173.851562 20.519531 171.238281 22.023438 171.238281 22.023438 " fill-opacity="1" fill-rule="nonzero"/><path fill="#d5bbab" d="M 172.652344 21.527344 L 172.652344 47.5625 L 175.933594 47.5625 L 175.933594 21.558594 C 174.609375 21.25 173.472656 21.34375 172.652344 21.527344 " fill-opacity="1" fill-rule="nonzero"/><path fill="#430c16" d="M 171.238281 22.023438 L 171.238281 23.035156 C 171.238281 23.035156 173.851562 21.535156 177.347656 23.035156 L 177.347656 22.023438 C 173.851562 20.519531 171.238281 22.023438 171.238281 22.023438 " fill-opacity="1" fill-rule="nonzero"/><path fill="#e0c1a9" d="M 182.234375 46.910156 C 182.234375 48.792969 178.675781 50.316406 174.292969 50.316406 C 169.910156 50.316406 166.355469 48.792969 166.355469 46.910156 C 166.355469 45.027344 169.910156 43.503906 174.292969 43.503906 C 178.675781 43.503906 182.234375 45.027344 182.234375 46.910156 " fill-opacity="1" fill-rule="nonzero"/><path fill="#17151d" d="M 182.015625 47.5625 C 182.015625 49.390625 178.558594 50.875 174.292969 50.875 C 170.027344 50.875 166.574219 49.390625 166.574219 47.5625 C 166.574219 45.730469 170.027344 44.25 174.292969 44.25 C 178.558594 44.25 182.015625 45.730469 182.015625 47.5625 " fill-opacity="1" fill-rule="nonzero"/><path fill="#e0c1a9" d="M 182.015625 49.246094 C 182.015625 51.078125 178.558594 52.5625 174.292969 52.5625 C 170.027344 52.5625 166.574219 51.078125 166.574219 49.246094 C 166.574219 47.417969 170.027344 45.933594 174.292969 45.933594 C 178.558594 45.933594 182.015625 47.417969 182.015625 49.246094 " fill-opacity="1" fill-rule="nonzero"/><path fill="#17151d" d="M 180.613281 50.011719 C 180.613281 51.367188 177.78125 52.464844 174.292969 52.464844 C 170.804688 52.464844 167.976562 51.367188 167.976562 50.011719 C 167.976562 48.660156 170.804688 47.5625 174.292969 47.5625 C 177.78125 47.5625 180.613281 48.660156 180.613281 50.011719 " fill-opacity="1" fill-rule="nonzero"/><path fill="#bb9478" d="M 170.316406 50.351562 L 170.316406 98.96875 L 178.273438 98.96875 L 178.273438 50.351562 C 173.71875 47.492188 170.316406 50.351562 170.316406 50.351562 " fill-opacity="1" fill-rule="nonzero"/><path fill="#987560" d="M 172.160156 49.402344 L 172.160156 98.96875 L 176.429688 98.96875 L 176.429688 49.472656 C 174.703125 48.882812 173.226562 49.058594 172.160156 49.402344 " fill-opacity="1" fill-rule="nonzero"/><path fill="#e0c1a9" d="M 192.886719 106.316406 C 192.886719 111.910156 184.5625 116.445312 174.292969 116.445312 C 164.027344 116.445312 155.703125 111.910156 155.703125 106.316406 C 155.703125 100.722656 164.027344 96.183594 174.292969 96.183594 C 184.5625 96.183594 192.886719 100.722656 192.886719 106.316406 " fill-opacity="1" fill-rule="nonzero"/><path fill="#17151d" d="M 192.523438 107.683594 C 192.523438 111.589844 184.363281 114.757812 174.292969 114.757812 C 164.222656 114.757812 156.0625 111.589844 156.0625 107.683594 C 156.0625 103.777344 164.222656 100.609375 174.292969 100.609375 C 184.363281 100.609375 192.523438 103.777344 192.523438 107.683594 " fill-opacity="1" fill-rule="nonzero"/><path fill="#e0c1a9" d="M 198.78125 115.894531 C 198.78125 121.703125 187.820312 126.40625 174.292969 126.40625 C 160.769531 126.40625 149.804688 121.703125 149.804688 115.894531 C 149.804688 110.089844 160.769531 105.386719 174.292969 105.386719 C 187.820312 105.386719 198.78125 110.089844 198.78125 115.894531 " fill-opacity="1" fill-rule="nonzero"/><path fill="#17151d" d="M 198.113281 117.90625 C 198.113281 123.554688 187.445312 128.128906 174.292969 128.128906 C 161.136719 128.128906 150.476562 123.554688 150.476562 117.90625 C 150.476562 112.261719 161.136719 107.683594 174.292969 107.683594 C 187.445312 107.683594 198.113281 112.261719 198.113281 117.90625 " fill-opacity="1" fill-rule="nonzero"/><path fill="#e0c1a9" d="M 197.65625 120.636719 C 197.65625 126.171875 187.195312 130.660156 174.292969 130.660156 C 161.390625 130.660156 150.933594 126.171875 150.933594 120.636719 C 150.933594 115.097656 161.390625 110.609375 174.292969 110.609375 C 187.195312 110.609375 197.65625 115.097656 197.65625 120.636719 " fill-opacity="1" fill-rule="nonzero"/><path fill="#17151d" d="M 197.015625 122.554688 C 197.015625 127.941406 186.84375 132.304688 174.292969 132.304688 C 161.746094 132.304688 151.570312 127.941406 151.570312 122.554688 C 151.570312 117.167969 161.746094 112.800781 174.292969 112.800781 C 186.84375 112.800781 197.015625 117.167969 197.015625 122.554688 " fill-opacity="1" fill-rule="nonzero"/><path fill="#e0c1a9" d="M 197.65625 125.003906 C 197.65625 130.542969 187.195312 135.03125 174.292969 135.03125 C 161.390625 135.03125 150.933594 130.542969 150.933594 125.003906 C 150.933594 119.464844 161.390625 114.976562 174.292969 114.976562 C 187.195312 114.976562 197.65625 119.464844 197.65625 125.003906 " fill-opacity="1" fill-rule="nonzero"/><path fill="#17151d" d="M 197.015625 126.921875 C 197.015625 132.308594 186.84375 136.675781 174.292969 136.675781 C 161.746094 136.675781 151.570312 132.308594 151.570312 126.921875 C 151.570312 121.535156 161.746094 117.171875 174.292969 117.171875 C 186.84375 117.171875 197.015625 121.535156 197.015625 126.921875 " fill-opacity="1" fill-rule="nonzero"/><path fill="#e0c1a9" d="M 197.015625 131.882812 C 197.015625 137.269531 186.84375 141.632812 174.292969 141.632812 C 161.746094 141.632812 151.570312 137.269531 151.570312 131.882812 C 151.570312 126.496094 161.746094 122.128906 174.292969 122.128906 C 186.84375 122.128906 197.015625 126.496094 197.015625 131.882812 " fill-opacity="1" fill-rule="nonzero"/><path fill="#17151d" d="M 192.886719 134.132812 C 192.886719 138.117188 184.5625 141.347656 174.292969 141.347656 C 164.027344 141.347656 155.703125 138.117188 155.703125 134.132812 C 155.703125 130.152344 164.027344 126.921875 174.292969 126.921875 C 184.5625 126.921875 192.886719 130.152344 192.886719 134.132812 " fill-opacity="1" fill-rule="nonzero"/><path fill="#887863" d="M 182.085938 134.636719 L 166.5 134.636719 C 166.5 134.636719 160.511719 320.734375 150.234375 375.039062 L 198.351562 375.039062 C 188.078125 320.734375 182.085938 134.636719 182.085938 134.636719 " fill-opacity="1" fill-rule="nonzero"/><path fill="#bb9478" d="M 181.34375 134.636719 L 167.246094 134.636719 C 167.246094 134.636719 161.824219 320.734375 152.53125 375.039062 L 196.050781 375.039062 C 186.761719 320.734375 181.34375 134.636719 181.34375 134.636719 " fill-opacity="1" fill-rule="nonzero"/><path fill="#887863" d="M 177.742188 375.039062 L 170.847656 375.039062 L 170.847656 141.417969 L 177.742188 141.417969 L 177.742188 375.039062 " fill-opacity="1" fill-rule="nonzero"/><path fill="#bb9478" d="M 166.5 134.636719 C 166.5 134.636719 174.378906 129.394531 182.085938 134.636719 L 166.5 134.636719 " fill-opacity="1" fill-rule="nonzero"/></svg>