<?xml version="1.0" encoding="UTF-8"?>
<svg xmlns="http://www.w3.org/2000/svg" xmlns:xlink="http://www.w3.org/1999/xlink" width="21px" height="24px" viewBox="0 0 21 24" version="1.1">
<g id="surface1">
<path style=" stroke:none;fill-rule:nonzero;fill:rgb(0%,0%,0%);fill-opacity:1;" d="M 17.863281 4.8125 C 16.566406 3.96875 15.628906 2.617188 15.335938 1.046875 C 15.273438 0.707031 15.238281 0.359375 15.238281 0 L 11.101562 0 L 11.09375 16.535156 C 11.023438 18.386719 9.496094 19.875 7.621094 19.875 C 7.039062 19.875 6.488281 19.730469 6.007812 19.476562 C 4.898438 18.894531 4.140625 17.738281 4.140625 16.40625 C 4.140625 14.492188 5.703125 12.9375 7.621094 12.9375 C 7.976562 12.9375 8.320312 12.996094 8.648438 13.097656 L 8.648438 8.886719 C 8.308594 8.839844 7.96875 8.8125 7.621094 8.8125 C 3.417969 8.8125 0 12.21875 0 16.40625 C 0 18.976562 1.289062 21.25 3.253906 22.625 C 4.492188 23.488281 5.996094 24 7.621094 24 C 11.820312 24 15.238281 20.59375 15.238281 16.40625 L 15.238281 8.019531 C 16.863281 9.183594 18.851562 9.867188 21 9.867188 L 21 5.738281 C 19.84375 5.738281 18.765625 5.398438 17.863281 4.8125 Z M 17.863281 4.8125 "/>
</g>
</svg>
